<svg xmlns="http://www.w3.org/2000/svg" width="197" height="90" fill="none" style=""><rect id="backgroundrect" width="100%" height="100%" x="0" y="0" fill="none" stroke="none"/>


<defs>
<filter id="filter0_d" x="0" y="0" width="97.66400146484375" height="89.50399780273438" filterUnits="userSpaceOnUse" color-interpolation-filters="sRGB">
<feFlood flood-opacity="0" result="BackgroundImageFix"/>
<feColorMatrix in="SourceAlpha" type="matrix" values="0 0 0 0 0 0 0 0 0 0 0 0 0 0 0 0 0 0 127 0"/>
<feOffset dy="4"/>
<feGaussianBlur stdDeviation="2"/>
<feColorMatrix type="matrix" values="0 0 0 0 0 0 0 0 0 0 0 0 0 0 0 0 0 0 0.25 0"/>
<feBlend mode="normal" in2="BackgroundImageFix" result="effect1_dropShadow"/>
<feBlend mode="normal" in="SourceGraphic" in2="effect1_dropShadow" result="shape"/>
</filter>
<filter id="filter1_d" x="94" y="0" width="102.8479995727539" height="89.50399780273438" filterUnits="userSpaceOnUse" color-interpolation-filters="sRGB">
<feFlood flood-opacity="0" result="BackgroundImageFix"/>
<feColorMatrix in="SourceAlpha" type="matrix" values="0 0 0 0 0 0 0 0 0 0 0 0 0 0 0 0 0 0 127 0"/>
<feOffset dy="4"/>
<feGaussianBlur stdDeviation="2"/>
<feColorMatrix type="matrix" values="0 0 0 0 0 0 0 0 0 0 0 0 0 0 0 0 0 0 0.25 0"/>
<feBlend mode="normal" in2="BackgroundImageFix" result="effect1_dropShadow"/>
<feBlend mode="normal" in="SourceGraphic" in2="effect1_dropShadow" result="shape"/>
</filter>
</defs>
<g class="currentLayer" style=""><title>Layer 1</title><g filter="url(#filter0_d)" id="svg_1" class="" fill="#ffffff" fill-opacity="1">
<path d="M17.728 33.216L66.592 33.216L66.592 38.976L17.728 38.976L17.728 58.56L76.576 58.56L76.576 64.416L11.776 64.416L11.776 7.77602L76.48 7.77602L76.48 13.632L17.728 13.632L17.728 33.216ZM23.008 19.008L81.856 19.008L81.856 2.40002L6.4 2.40002L6.39999 69.792L81.952 69.792L81.952 53.184L23.008 53.184L23.008 44.256L71.872 44.256L71.872 27.936L23.008 27.936L23.008 19.008ZM3.99999 72.192L4.00001 1.50495e-05L84.256 2.96951e-05L93.568 9.88803L93.568 30.72L78.88 30.72L83.584 35.424L83.584 50.784L93.664 60.672L93.664 81.504L13.888 81.504L3.99999 72.192Z" fill="#ffffff" id="svg_2" fill-opacity="1"/>
</g><g filter="url(#filter1_d)" id="svg_3" class="" fill="#ffffff" fill-opacity="1">
<path d="M137.84 64.416L137.84 13.632L105.68 13.632L105.68 7.77602L175.856 7.77603L175.856 13.632L143.6 13.632L143.6 64.416L137.84 64.416ZM148.88 69.792L148.88 19.008L181.136 19.008L181.136 2.40003L100.4 2.40002L100.4 19.008L132.56 19.008L132.56 69.792L148.88 69.792ZM98 21.408L98 1.45963e-05L183.536 2.97035e-05L192.848 9.88803L192.848 30.72L160.592 30.72L160.592 81.504L140.048 81.504L130.16 72.192L130.16 30.72L107.888 30.72L98 21.408Z" fill="#ffffff" id="svg_4" fill-opacity="1"/>
</g></g></svg>