<svg width="195" height="172" viewBox="0 0 195 172" fill="none" xmlns="http://www.w3.org/2000/svg">
<g filter="url(#filter0_d)">
<path d="M17.728 33.216L66.592 33.216L66.592 38.976L17.728 38.976L17.728 58.56L76.576 58.56L76.576 64.416L11.776 64.416L11.776 7.77602L76.48 7.77602L76.48 13.632L17.728 13.632L17.728 33.216ZM23.008 19.008L81.856 19.008L81.856 2.40002L6.4 2.40002L6.39999 69.792L81.952 69.792L81.952 53.184L23.008 53.184L23.008 44.256L71.872 44.256L71.872 27.936L23.008 27.936L23.008 19.008ZM3.99999 72.192L4.00001 1.50495e-05L84.256 2.96951e-05L93.568 9.88803L93.568 30.72L78.88 30.72L83.584 35.424L83.584 50.784L93.664 60.672L93.664 81.504L13.888 81.504L3.99999 72.192Z" fill="black"/>
</g>
<g filter="url(#filter1_d)">
<path d="M135.84 146.416L135.84 95.632L103.68 95.632L103.68 89.776L173.856 89.776L173.856 95.632L141.6 95.632L141.6 146.416L135.84 146.416ZM146.88 151.792L146.88 101.008L179.136 101.008L179.136 84.4L98.4 84.4L98.4 101.008L130.56 101.008L130.56 151.792L146.88 151.792ZM96 103.408L96 82L181.536 82L190.848 91.888L190.848 112.72L158.592 112.72L158.592 163.504L138.048 163.504L128.16 154.192L128.16 112.72L105.888 112.72L96 103.408Z" fill="black"/>
</g>
<defs>
<filter id="filter0_d" x="0" y="0" width="97.664" height="89.504" filterUnits="userSpaceOnUse" color-interpolation-filters="sRGB">
<feFlood flood-opacity="0" result="BackgroundImageFix"/>
<feColorMatrix in="SourceAlpha" type="matrix" values="0 0 0 0 0 0 0 0 0 0 0 0 0 0 0 0 0 0 127 0"/>
<feOffset dy="4"/>
<feGaussianBlur stdDeviation="2"/>
<feColorMatrix type="matrix" values="0 0 0 0 0 0 0 0 0 0 0 0 0 0 0 0 0 0 0.25 0"/>
<feBlend mode="normal" in2="BackgroundImageFix" result="effect1_dropShadow"/>
<feBlend mode="normal" in="SourceGraphic" in2="effect1_dropShadow" result="shape"/>
</filter>
<filter id="filter1_d" x="92" y="82" width="102.848" height="89.504" filterUnits="userSpaceOnUse" color-interpolation-filters="sRGB">
<feFlood flood-opacity="0" result="BackgroundImageFix"/>
<feColorMatrix in="SourceAlpha" type="matrix" values="0 0 0 0 0 0 0 0 0 0 0 0 0 0 0 0 0 0 127 0"/>
<feOffset dy="4"/>
<feGaussianBlur stdDeviation="2"/>
<feColorMatrix type="matrix" values="0 0 0 0 0 0 0 0 0 0 0 0 0 0 0 0 0 0 0.25 0"/>
<feBlend mode="normal" in2="BackgroundImageFix" result="effect1_dropShadow"/>
<feBlend mode="normal" in="SourceGraphic" in2="effect1_dropShadow" result="shape"/>
</filter>
</defs>
</svg>
